<?xml version="1.0" encoding="iso-8859-1"?>
<!-- Generator: Adobe Illustrator 19.0.0, SVG Export Plug-In . SVG Version: 6.00 Build 0)  -->
<svg version="1.1" id="Layer_1" xmlns="http://www.w3.org/2000/svg" xmlns:xlink="http://www.w3.org/1999/xlink" x="0px" y="0px"
	 viewBox="0 0 512.002 512.002" style="enable-background:new 0 0 512.002 512.002;" xml:space="preserve">
<g>
	<g>
		<path d="M509.979,123.286c-3.275-19.319-26.981-26.675-40.675-12.979l-31.568,31.568c-7.91,7.909-20.708,7.908-28.617,0
			l-39.029-39.029c-7.909-7.908-7.91-20.707,0-28.616l31.569-31.569c13.78-13.781,6.252-37.417-12.979-40.675
			C346.37-5.187,303.906,7.191,273.926,37.17c-30.879,30.879-43.488,76.378-34.023,120.753L23.604,374.223
			c-31.468,31.468-31.468,82.671,0,114.139c15.244,15.244,35.511,23.639,57.069,23.639c21.559,0,41.826-8.394,57.07-23.639
			l216.296-216.296c43.502,9.315,88.894-2.164,120.756-34.027C504.486,208.349,517.311,166.522,509.979,123.286z M450.855,214.099
			c-25.417,25.416-62.63,32.995-97.296,22.955c-5.924-1.714-12.317-0.072-16.679,4.291L113.802,464.422
			c-8.849,8.849-20.615,13.722-33.13,13.722c-12.514,0-24.28-4.873-33.128-13.722c-18.267-18.267-18.267-47.991,0-66.258
			l223.078-223.078c4.363-4.362,6.006-10.753,4.291-16.679c-10.454-36.096-1.872-72.467,22.955-97.295
			c16.946-16.946,39.821-26.549,64.67-27.209l-16.387,16.387c-21.141,21.14-21.144,55.357,0,76.499l39.029,39.029
			c21.141,21.141,55.356,21.142,76.499,0l16.417-16.417C477.492,174.076,468.022,196.932,450.855,214.099z"/>
	</g>
</g>
<g>
	<g>
		<circle cx="85.757" cy="426.21" r="23.383"/>
	</g>
</g>
<g>
</g>
<g>
</g>
<g>
</g>
<g>
</g>
<g>
</g>
<g>
</g>
<g>
</g>
<g>
</g>
<g>
</g>
<g>
</g>
<g>
</g>
<g>
</g>
<g>
</g>
<g>
</g>
<g>
</g>
</svg>
